<?xml version="1.0" encoding="utf-8"?>
<!-- Generator: Adobe Illustrator 23.1.0, SVG Export Plug-In . SVG Version: 6.00 Build 0)  -->
<svg version="1.1" baseProfile="tiny" id="Livello_1"
	 xmlns="http://www.w3.org/2000/svg" xmlns:xlink="http://www.w3.org/1999/xlink" x="0px" y="0px" viewBox="0 0 429.66 19.89"
	 xml:space="preserve">
<path fill="#000000" d="M183.45,11.36H1.42C0.63,11.36,0,10.73,0,9.94v0c0-0.78,0.63-1.42,1.42-1.42h182.03
	c0.78,0,1.42,0.63,1.42,1.42v0C184.86,10.73,184.23,11.36,183.45,11.36z"/>
<path fill="#000000" d="M428.24,11.36H246.21c-0.78,0-1.42-0.63-1.42-1.42v0c0-0.78,0.63-1.42,1.42-1.42h182.03
	c0.78,0,1.42,0.63,1.42,1.42v0C429.66,10.73,429.03,11.36,428.24,11.36z"/>
<path fill="#000000" d="M217.9,0.44l2.61,5.28c0.12,0.23,0.34,0.39,0.59,0.43L226.93,7c0.65,0.09,0.91,0.89,0.44,1.35l-4.22,4.11
	c-0.19,0.18-0.27,0.44-0.23,0.7l1,5.8c0.11,0.65-0.57,1.14-1.15,0.83l-5.21-2.74c-0.23-0.12-0.5-0.12-0.73,0l-5.21,2.74
	c-0.58,0.3-1.26-0.19-1.15-0.83l1-5.8c0.04-0.26-0.04-0.52-0.23-0.7l-4.22-4.11c-0.47-0.46-0.21-1.25,0.44-1.35l5.83-0.85
	c0.26-0.04,0.48-0.2,0.59-0.43l2.61-5.28C216.77-0.15,217.61-0.15,217.9,0.44z"/>
</svg>
